# xmcd
#
# Track frame offsets: 
#        150
#        11849
#        31366
#        43493
#        58486
#        76961
#        97426
#        115392
#        133506
#        152324
#        169312
#        187977
#        211191
#        228134
#        254534
#        271889
#        290421
#        310475
#        328364
#        342928
#
# Disc length: 4797 seconds
#
# Revision: 1
# Processed by: cddbd v1.5.2PL0 Copyright (c) Steve Scherf et al.
# Submitted via: ExactAudioCopy v1.3
#
DISCID=3112bb14
DTITLE=Various Artist - 100 Hits - Disco Classics - CD4
DYEAR=2011
DGENRE=Disco
TTITLE0=Windy City Orchestra - Windy City Theme
TTITLE1=Sister Sledge - Thinking Of You
TTITLE2=The Trammps - That's Where The Happy People Go
TTITLE3=Instant Funk - I Got My Mind Made Up
TTITLE4=Average White Band - Let's Go Round Again
TTITLE5=Chaka Khan - Eye To Eye
TTITLE6=Candi Staton - Victim
TTITLE7=Detroit Spinners - I'll Be Around
TTITLE8=Deodato - S O S Fire In The Sky
TTITLE9=Rose Royce - Is It Love You're After
TTITLE10=Patrice Rushen - Haven't You Heard
TTITLE11=Change - Paradise
TTITLE12=The Futures - Party Time Man
TTITLE13=Giorgio Moroder - From Here To Eternity
TTITLE14=First Choice - Let No Man Put Asunder
TTITLE15=Gino Soccio - Try It Out
TTITLE16=Herbie Mann - Superman
TTITLE17=The Ripple - The Beat Goes On And On
TTITLE18=Loleatta Holloway and Salsoul Orchestra - Runaway
TTITLE19=Archie Bell and The Drells - Don't Let Love Get You Down
EXTD=
EXTT0=
EXTT1=
EXTT2=
EXTT3=
EXTT4=
EXTT5=
EXTT6=
EXTT7=
EXTT8=
EXTT9=
EXTT10=
EXTT11=
EXTT12=
EXTT13=
EXTT14=
EXTT15=
EXTT16=
EXTT17=
EXTT18=
EXTT19=
PLAYORDER=
